<svg viewBox="0 0 800 800" xmlns="http://www.w3.org/2000/svg"><path d="M132.4564289306462,650.7578403349163 L-1.0840819861377327,569.1229168843599 M801.1835910152063,260.32994557138625 L132.4564289306462,650.7578403349163 M667.6320628134692,187.28214590595152 L801.1835910152063,260.32994557138625 M-1.0840819861377327,569.1229168843599 L667.6320628134692,187.28214590595152 M705.6105059490105,300.77203190934034 L209.43522139268384,589.8081761845096 M209.43522139268384,589.8081761845096 L416.87866133234877,415.865022572834 M416.87866133234877,415.865022572834 L705.6105059490105,300.77203190934034 M365.74564009666733,436.2474374286345 L130.6157203440353,632.771682159471 M130.6157203440353,632.771682159471 L28.683571673014967,570.6056045457838 M28.683571673014967,570.6056045457838 L365.74564009666733,436.2474374286345 M451.87367980332203,386.52139051922273 L670.6219701204539,203.09901990186472 M670.6219701204539,203.09901990186472 L772.5616715616698,258.9739383210381 M772.5616715616698,258.9739383210381 L451.87367980332203,386.52139051922273 M401.0594208830545,406.7317798410584 L102.56420239543422,525.4524854752495 M102.56420239543422,525.4524854752495 L598.7359099534683,241.51153610232384 M598.7359099534683,241.51153610232384 L401.0594208830545,406.7317798410584 M-2.2523096834489706,530.0032755043499 L-1.0840819861377327,569.1229168843599 M-2.2523096834489706,530.0032755043499 L131.65957760257862,611.4225112255992 M132.4564289306462,650.7578403349163 L131.65957760257862,611.4225112255992 M801.1835910152063,260.32994557138625 L802.2523096834491,222.07439490191337 M131.65957760257862,611.4225112255992 L802.2523096834491,222.07439490191337 M668.3292817435051,149.24215966508368 L667.6320628134692,187.28214590595152 M668.3292817435051,149.24215966508368 L-2.2523096834489706,530.0032755043499 M802.2523096834491,222.07439490191337 L668.3292817435051,149.24215966508368 M670.6219701204539,203.09901990186472 L670.734824778224,197.0188948843463 M451.8926912272684,380.35690085134195 L670.734824778224,197.0188948843463 M451.8926912272684,380.35690085134195 L451.87367980332203,386.52139051922273 M772.7197947561885,252.86765767795373 L451.8926912272684,380.35690085134195 M772.7197947561885,252.86765767795373 L772.5616715616698,258.9739383210381 M670.734824778224,197.0188948843463 L772.7197947561885,252.86765767795373 M102.42572363796307,519.2269610307328 L102.56420239543422,525.4524854752495 M401.05590855665275,400.5582578452301 L102.42572363796307,519.2269610307328 M401.0594208830545,406.7317798410584 L401.05590855665275,400.5582578452301 M598.8182266814888,235.41338686150024 L401.05590855665275,400.5582578452301 M598.7359099534683,241.51153610232384 L598.8182266814888,235.41338686150024 M102.42572363796307,519.2269610307328 L598.8182266814888,235.41338686150024 M705.6105059490105,300.77203190934034 L705.7403073441105,294.64644642372593 M416.88218291174513,409.68743594522164 L705.7403073441105,294.64644642372593 M416.87866133234877,415.865022572834 L416.88218291174513,409.68743594522164 M209.34422093327504,583.5552165063175 L416.88218291174513,409.68743594522164 M209.34422093327504,583.5552165063175 L209.43522139268384,589.8081761845096 M705.7403073441105,294.64644642372593 L209.34422093327504,583.5552165063175 M130.4880060369684,626.500701972565 L130.6157203440353,632.771682159471 M365.72635438890404,430.0608183730402 L130.4880060369684,626.500701972565 M365.72635438890404,430.0608183730402 L365.74564009666733,436.2474374286345 M28.510602281099978,564.3607755506214 L365.72635438890404,430.0608183730402 M28.683571673014967,570.6056045457838 L28.510602281099978,564.3607755506214 M130.4880060369684,626.500701972565 L28.510602281099978,564.3607755506214 M667.9105000826225,185.54598291713256 L793.5063884027531,254.2230351339366 M793.5063884027531,254.2230351339366 L132.51997924341094,639.5304585392802 M132.51997924341094,639.5304585392802 L6.934135674398021,562.8787176463501 M6.934135674398021,562.8787176463501 L667.9105000826225,185.54598291713256 M667.9105000826225,185.54598291713256 L668.4971739273265,153.5677768295971 M794.386540285182,222.07439490191337 L668.4971739273265,153.5677768295971 M793.5063884027531,254.2230351339366 L794.386540285182,222.07439490191337 M131.85124049544868,606.4844594334971 L794.386540285182,222.07439490191337 M132.51997924341094,639.5304585392802 L131.85124049544868,606.4844594334971 M5.972013305622056,530.0032755043499 L131.85124049544868,606.4844594334971 M6.934135674398021,562.8787176463501 L5.972013305622056,530.0032755043499 M668.4971739273265,153.5677768295971 L5.972013305622056,530.0032755043499" stroke="black"  stroke-width="4"  fill="red"/></svg>