<svg viewBox="0 0 800 800" xmlns="http://www.w3.org/2000/svg"><path d="M400,742.6985591085229 L-75.07762932839898,465.33049454577184 M875.0776293283989,465.33049454577184 L400,742.6985591085229 M399.99999999999994,194.05843140198243 L875.0776293283989,465.33049454577184 M-75.07762932839898,465.33049454577184 L399.99999999999994,194.05843140198243 M732.9242563702907,492.78962440793515 L447.88016421002897,658.835874414298 M447.88016421002897,658.835874414298 L447.56060805289866,492.78962440793515 M447.56060805289866,492.78962440793515 L732.9242563702907,492.78962440793515 M352.4393919471013,492.78962440793515 L352.119835789971,658.835874414298 M352.119835789971,658.835874414298 L67.07574362970928,492.7896244079351 M67.07574362970928,492.7896244079351 L352.4393919471013,492.78962440793515 M447.4550351160443,437.9323172471205 L447.1411098561807,274.81196728822624 M447.1411098561807,274.81196728822624 L732.1852458123101,437.9323172471205 M732.1852458123101,437.9323172471205 L447.4550351160443,437.9323172471205 M352.54496488395574,437.93231724712047 L67.81475418768991,437.93231724712047 M67.81475418768991,437.93231724712047 L352.8588901438193,274.81196728822624 M352.8588901438193,274.81196728822624 L352.54496488395574,437.93231724712047 M-76.4009653432413,327.8053817542128 L-75.07762932839898,465.33049454577184 M-76.4009653432413,327.8053817542128 L400,604.4051860730103 M400,742.6985591085229 L400,604.4051860730103 M875.0776293283989,465.33049454577184 L876.4009653432413,327.8053817542129 M400,604.4051860730103 L876.4009653432413,327.8053817542129 M399.99999999999994,57.301440891477114 L399.99999999999994,194.05843140198243 M399.99999999999994,57.301440891477114 L-76.4009653432413,327.8053817542128 M876.4009653432413,327.8053817542129 L399.99999999999994,57.301440891477114 M447.1411098561807,274.81196728822624 L447.1619089339906,252.9447561611901 M447.476112191379,415.99187146898674 L447.1619089339906,252.9447561611901 M447.476112191379,415.99187146898674 L447.4550351160443,437.9323172471205 M732.3327853396528,415.99187146898674 L447.476112191379,415.99187146898674 M732.3327853396528,415.99187146898674 L732.1852458123101,437.9323172471205 M447.1619089339906,252.9447561611901 L732.3327853396528,415.99187146898674 M67.66721466034721,415.99187146898663 L67.81475418768991,437.93231724712047 M352.52388780862105,415.99187146898663 L67.66721466034721,415.99187146898663 M352.54496488395574,437.93231724712047 L352.52388780862105,415.99187146898663 M352.8380910660093,252.9447561611901 L352.52388780862105,415.99187146898663 M352.8588901438193,274.81196728822624 L352.8380910660093,252.9447561611901 M67.66721466034721,415.99187146898663 L352.8380910660093,252.9447561611901 M732.9242563702907,492.78962440793515 L733.0724532349113,470.8247651324811 M447.5817790335587,470.8247651324811 L733.0724532349113,470.8247651324811 M447.56060805289866,492.78962440793515 L447.5817790335587,470.8247651324811 M447.9016207030651,636.7977789124825 L447.5817790335587,470.8247651324811 M447.9016207030651,636.7977789124825 L447.88016421002897,658.835874414298 M733.0724532349113,470.8247651324811 L447.9016207030651,636.7977789124825 M352.09837929693487,636.7977789124825 L352.119835789971,658.835874414298 M352.4182209664412,470.8247651324811 L352.09837929693487,636.7977789124825 M352.4182209664412,470.8247651324811 L352.4393919471013,492.78962440793515 M66.92754676508866,470.8247651324811 L352.4182209664412,470.8247651324811 M67.07574362970928,492.7896244079351 L66.92754676508866,470.8247651324811 M352.09837929693487,636.7977789124825 L66.92754676508866,470.8247651324811 M399.99999999999994,188.3285924444899 L846.7715366961155,443.37784203702586 M846.7715366961155,443.37784203702586 L400,703.8134383969622 M400,703.8134383969622 L-46.77153669611545,443.37784203702586 M-46.77153669611545,443.37784203702586 L399.99999999999994,188.3285924444899 M399.99999999999994,188.3285924444899 L399.99999999999994,73.36345127350188 M847.8169074226468,327.8053817542129 L399.99999999999994,73.36345127350188 M846.7715366961155,443.37784203702586 L847.8169074226468,327.8053817542129 M400,587.6335393411476 L847.8169074226468,327.8053817542129 M400,703.8134383969622 L400,587.6335393411476 M-47.81690742264675,327.8053817542128 L400,587.6335393411476 M-46.77153669611545,443.37784203702586 L-47.81690742264675,327.8053817542128 M399.99999999999994,73.36345127350188 L-47.81690742264675,327.8053817542128" stroke="black"  stroke-width="4"  fill="red"/></svg>